<svg xmlns="http://www.w3.org/2000/svg" width="45" height="33" viewBox="0 0 45 33">
    <g fill="none" fill-rule="evenodd" stroke="#EB9062" stroke-linecap="round" stroke-linejoin="round">
        <path d="M.919 15.69h3.613a6.38 6.38 0 015.533 0c3.118 1.398 5.032 4.72 5.032 4.72s7.048.196 9.361.999c2.314.803 2.72 3.72 2.314 4.523-.406.804-5.235.766-6.972.785-1.737.019-6.338-1.265-8.354-.582" transform="translate(0 1)"/>
        <path d="M0 26.71h5.337s10.87 4.24 12.58 4.037c1.712-.203 9.463-1.898 10.37-2.018.906-.12 8.873-6.523 8.873-7.428 0-.904-.76-1.98-2.535-1.41-1.775.569-7.879 4.15-7.879 4.15" transform="translate(0 1)"/>
        <path d="M26.233 21.814s7.992-5.27 9.45-5.365c1.458-.095 2.345.936 2.345 1.398 0 .462-1.838 1.898-1.838 1.898M2.915 4.258L12.365 0s7.492 5.865 15.44 5.061c7.948-.803 13.944-.917 16.821 1.266l-7.485 6.959s-6.642-2.866-16.035-1.835C9.608 12.716 2.916 4.258 2.916 4.258zM8.664 5.53l4.342-2.31M10.838 7.035l4.342-2.31M13.912 8.187l4.348-2.31" transform="translate(0 1)"/>
    </g>
</svg>
