<svg height="33" viewBox="0 0 45 33" width="45" xmlns="http://www.w3.org/2000/svg"><g fill="none" fill-rule="evenodd" stroke="#eb9062" stroke-linecap="round" stroke-linejoin="round" transform="translate(0 1)"><path d="m.919 15.69h3.613a6.38 6.38 0 0 1 5.533 0c3.118 1.398 5.032 4.72 5.032 4.72s7.048.196 9.361.999c2.314.803 2.72 3.72 2.314 4.523-.406.804-5.235.766-6.972.785s-6.338-1.265-8.354-.582"/><path d="m0 26.71h5.337s10.87 4.24 12.58 4.037c1.712-.203 9.463-1.898 10.37-2.018.906-.12 8.873-6.523 8.873-7.428 0-.904-.76-1.98-2.535-1.41-1.775.569-7.879 4.15-7.879 4.15"/><path d="m26.233 21.814s7.992-5.27 9.45-5.365 2.345.936 2.345 1.398-1.838 1.898-1.838 1.898m-33.275-15.487 9.45-4.258s7.492 5.865 15.44 5.061c7.948-.803 13.944-.917 16.821 1.266l-7.485 6.959s-6.642-2.866-16.035-1.835c-11.498 1.265-18.19-7.193-18.19-7.193zm5.749 1.272 4.342-2.31m-2.168 3.815 4.342-2.31m-1.268 3.462 4.348-2.31"/></g></svg>