<svg height="34" viewBox="0 0 47 34" width="47" xmlns="http://www.w3.org/2000/svg"><g fill="none" fill-rule="evenodd" stroke="#eb9062" transform="translate(1 1)"><ellipse cx="7.807" cy="7.667" rx="3.214" ry="3.2"/><path d="m7.807 0v2.642m0 10.258v2.648m8.11-7.774h-2.653m-10.611 0h-2.653m13.327-5.603-1.877 1.87m-7.594 7.253-1.877 1.87m11.556 0-1.877-1.87m-7.802-7.517-1.876-1.87m25.103.264-1.688 6.507 5.148 4.486m-11.362-2.297 6.214-2.19m0 3.552v8.998m16.957-18.786-1.683 6.506 5.142 4.487m-11.355-2.297 6.213-2.19m0 3.552v8.997m-38.016 4.324s2.69.796 5.539-2.297c0 0 5.148 5.02 9.849 0 0 0 4.789 5.302 9.937 0 0 0 4.367 5.647 9.59 0 0 0 1.608 2.51 5.672 2.51m-40.587 5.44s2.69.797 5.539-2.297c0 0 5.148 5.02 9.849 0 0 0 4.789 5.302 9.937 0 0 0 4.367 5.648 9.59 0 0 0 1.608 2.51 5.672 2.51" stroke-linecap="round" stroke-linejoin="round"/></g></svg>